<mxfile host="drawio-plugin" modified="2023-12-12T12:48:04.250Z" agent="5.0 (X11; Linux x86_64) AppleWebKit/537.36 (KHTML, like Gecko) Chrome/111.0.0.0 Safari/537.36" etag="yl-o_9G0nWAs2HXMQX0n" version="20.5.3" type="embed"><diagram id="kgpKYQtTHZ0yAKxKKP6v" name="Page-1"><mxGraphModel dx="576" dy="347" grid="1" gridSize="10" guides="1" tooltips="1" connect="1" arrows="1" fold="1" page="1" pageScale="1" pageWidth="850" pageHeight="1100" math="0" shadow="0"><root><mxCell id="0"/><mxCell id="1" parent="0"/><mxCell id="3nuBFxr9cyL0pnOWT2aG-1" value=":Client" style="shape=umlLifeline;perimeter=lifelinePerimeter;container=1;collapsible=0;recursiveResize=0;rounded=0;shadow=0;strokeWidth=1;" parent="1" vertex="1"><mxGeometry x="120" y="80" width="100" height="360" as="geometry"/></mxCell><mxCell id="NxAw48Pnlh9DZRiPBp23-26" value="Container&lt;br&gt;&lt;div&gt;Reconnect&lt;/div&gt;" style="endArrow=none;dashed=1;html=1;rounded=0;jumpSize=11;jumpStyle=arc;strokeWidth=1;fontSize=9;align=left;labelPosition=right;verticalLabelPosition=top;verticalAlign=bottom;labelBackgroundColor=none;strokeColor=#666666;fontColor=#757575;fillColor=#f5f5f5;" parent="3nuBFxr9cyL0pnOWT2aG-1" edge="1"><mxGeometry x="-1" width="50" height="50" relative="1" as="geometry"><mxPoint x="-10" y="260" as="sourcePoint"/><mxPoint x="430" y="260" as="targetPoint"/><mxPoint as="offset"/></mxGeometry></mxCell><mxCell id="NxAw48Pnlh9DZRiPBp23-25" value="Request" style="endArrow=none;dashed=1;html=1;rounded=0;jumpSize=11;jumpStyle=arc;strokeWidth=1;fontSize=9;align=left;labelPosition=right;verticalLabelPosition=top;verticalAlign=bottom;labelBackgroundColor=none;strokeColor=#666666;fontColor=#757575;fillColor=#f5f5f5;" parent="3nuBFxr9cyL0pnOWT2aG-1" edge="1"><mxGeometry x="-1" width="50" height="50" relative="1" as="geometry"><mxPoint x="-10" y="179.76" as="sourcePoint"/><mxPoint x="430" y="179.76" as="targetPoint"/><mxPoint as="offset"/></mxGeometry></mxCell><mxCell id="3nuBFxr9cyL0pnOWT2aG-2" value="" style="points=[];perimeter=orthogonalPerimeter;rounded=0;shadow=0;strokeWidth=1;" parent="3nuBFxr9cyL0pnOWT2aG-1" vertex="1"><mxGeometry x="45" y="100" width="10" height="230" as="geometry"/></mxCell><mxCell id="NxAw48Pnlh9DZRiPBp23-7" value="skillGetConfig" style="verticalAlign=middle;endArrow=open;shadow=0;strokeWidth=1;entryX=-0.12;entryY=0.255;entryDx=0;entryDy=0;entryPerimeter=0;endFill=0;exitX=1;exitY=0.049;exitDx=0;exitDy=0;exitPerimeter=0;" parent="3nuBFxr9cyL0pnOWT2aG-1" target="NxAw48Pnlh9DZRiPBp23-4" edge="1"><mxGeometry relative="1" as="geometry"><mxPoint x="55" y="143.77000000000004" as="sourcePoint"/><mxPoint x="203.86" y="144.22000000000003" as="targetPoint"/></mxGeometry></mxCell><mxCell id="NxAw48Pnlh9DZRiPBp23-8" value="skillConfig" style="endArrow=open;html=1;rounded=0;exitX=0.057;exitY=0.32;exitDx=0;exitDy=0;exitPerimeter=0;entryX=1.04;entryY=0.136;entryDx=0;entryDy=0;entryPerimeter=0;dashed=1;endFill=0;" parent="3nuBFxr9cyL0pnOWT2aG-1" edge="1"><mxGeometry width="50" height="50" relative="1" as="geometry"><mxPoint x="205.16999999999996" y="161" as="sourcePoint"/><mxPoint x="54.99999999999997" y="161.11999999999995" as="targetPoint"/></mxGeometry></mxCell><mxCell id="NxAw48Pnlh9DZRiPBp23-22" value="skillUpdate" style="endArrow=open;html=1;rounded=0;exitX=0.057;exitY=0.32;exitDx=0;exitDy=0;exitPerimeter=0;entryX=1.04;entryY=0.136;entryDx=0;entryDy=0;entryPerimeter=0;dashed=1;endFill=0;" parent="3nuBFxr9cyL0pnOWT2aG-1" edge="1"><mxGeometry width="50" height="50" relative="1" as="geometry"><mxPoint x="205.16999999999996" y="128" as="sourcePoint"/><mxPoint x="55" y="128.12" as="targetPoint"/></mxGeometry></mxCell><mxCell id="NxAw48Pnlh9DZRiPBp23-24" value="&lt;div&gt;Connect&lt;/div&gt;" style="endArrow=none;dashed=1;html=1;rounded=0;jumpSize=11;jumpStyle=arc;strokeWidth=1;fontSize=9;align=left;labelPosition=right;verticalLabelPosition=top;verticalAlign=bottom;labelBackgroundColor=none;fontColor=#757575;fillColor=#f5f5f5;strokeColor=#666666;" parent="3nuBFxr9cyL0pnOWT2aG-1" edge="1"><mxGeometry x="-1" width="50" height="50" relative="1" as="geometry"><mxPoint x="-10" y="80" as="sourcePoint"/><mxPoint x="430" y="80" as="targetPoint"/><mxPoint as="offset"/></mxGeometry></mxCell><mxCell id="3nuBFxr9cyL0pnOWT2aG-5" value=":Container" style="shape=umlLifeline;perimeter=lifelinePerimeter;container=1;collapsible=0;recursiveResize=0;rounded=0;shadow=0;strokeWidth=1;" parent="1" vertex="1"><mxGeometry x="440" y="80" width="100" height="300" as="geometry"/></mxCell><mxCell id="3nuBFxr9cyL0pnOWT2aG-6" value="" style="points=[];perimeter=orthogonalPerimeter;rounded=0;shadow=0;strokeWidth=1;" parent="3nuBFxr9cyL0pnOWT2aG-5" vertex="1"><mxGeometry x="45" y="90" width="10" height="190" as="geometry"/></mxCell><mxCell id="NxAw48Pnlh9DZRiPBp23-13" value="taskResults" style="endArrow=open;html=1;rounded=0;exitX=0.057;exitY=0.32;exitDx=0;exitDy=0;exitPerimeter=0;entryX=1.04;entryY=0.136;entryDx=0;entryDy=0;entryPerimeter=0;dashed=1;endFill=0;" parent="3nuBFxr9cyL0pnOWT2aG-5" edge="1"><mxGeometry width="50" height="50" relative="1" as="geometry"><mxPoint x="45" y="220" as="sourcePoint"/><mxPoint x="-105.16999999999996" y="220.12" as="targetPoint"/></mxGeometry></mxCell><mxCell id="AsVv0_2Yt3Ud8hqUYlqq-3" value="&lt;div&gt;skillRegister&lt;/div&gt;" style="endArrow=open;html=1;rounded=0;exitX=0;exitY=0.044;exitDx=0;exitDy=0;exitPerimeter=0;endFill=0;" parent="1" source="3nuBFxr9cyL0pnOWT2aG-6" target="NxAw48Pnlh9DZRiPBp23-4" edge="1"><mxGeometry width="50" height="50" relative="1" as="geometry"><mxPoint x="351.54" y="330" as="sourcePoint"/><mxPoint x="343.4200000000001" y="194.96000000000004" as="targetPoint"/></mxGeometry></mxCell><mxCell id="NxAw48Pnlh9DZRiPBp23-3" value=":Broker" style="shape=umlLifeline;perimeter=lifelinePerimeter;container=1;collapsible=0;recursiveResize=0;rounded=0;shadow=0;strokeWidth=1;" parent="1" vertex="1"><mxGeometry x="280" y="80" width="100" height="360" as="geometry"/></mxCell><mxCell id="NxAw48Pnlh9DZRiPBp23-4" value="" style="points=[];perimeter=orthogonalPerimeter;rounded=0;shadow=0;strokeWidth=1;" parent="NxAw48Pnlh9DZRiPBp23-3" vertex="1"><mxGeometry x="45" y="70" width="10" height="290" as="geometry"/></mxCell><mxCell id="NxAw48Pnlh9DZRiPBp23-9" value="skillRequest" style="verticalAlign=middle;endArrow=open;shadow=0;strokeWidth=1;entryX=-0.114;entryY=0.217;entryDx=0;entryDy=0;entryPerimeter=0;endFill=0;exitX=1;exitY=0.049;exitDx=0;exitDy=0;exitPerimeter=0;" parent="NxAw48Pnlh9DZRiPBp23-3" edge="1"><mxGeometry relative="1" as="geometry"><mxPoint x="-105" y="195.0000000000001" as="sourcePoint"/><mxPoint x="43.860000000000014" y="195.4500000000001" as="targetPoint"/></mxGeometry></mxCell><mxCell id="NxAw48Pnlh9DZRiPBp23-10" value="taskRequest" style="endArrow=none;html=1;rounded=0;exitX=0;exitY=0.044;exitDx=0;exitDy=0;exitPerimeter=0;endFill=0;startArrow=open;startFill=0;" parent="NxAw48Pnlh9DZRiPBp23-3" edge="1"><mxGeometry width="50" height="50" relative="1" as="geometry"><mxPoint x="205" y="199.99999999999994" as="sourcePoint"/><mxPoint x="55" y="199.99999999999994" as="targetPoint"/></mxGeometry></mxCell><mxCell id="NxAw48Pnlh9DZRiPBp23-14" value="skillResults" style="endArrow=open;html=1;rounded=0;exitX=0.057;exitY=0.32;exitDx=0;exitDy=0;exitPerimeter=0;entryX=1.04;entryY=0.136;entryDx=0;entryDy=0;entryPerimeter=0;dashed=1;endFill=0;" parent="NxAw48Pnlh9DZRiPBp23-3" edge="1"><mxGeometry width="50" height="50" relative="1" as="geometry"><mxPoint x="44.99999999999994" y="226" as="sourcePoint"/><mxPoint x="-105.16999999999999" y="226.12" as="targetPoint"/></mxGeometry></mxCell><mxCell id="NxAw48Pnlh9DZRiPBp23-15" value="skillGetAll" style="verticalAlign=middle;endArrow=open;shadow=0;strokeWidth=1;entryX=-0.114;entryY=0.217;entryDx=0;entryDy=0;entryPerimeter=0;endFill=0;exitX=1;exitY=0.049;exitDx=0;exitDy=0;exitPerimeter=0;" parent="NxAw48Pnlh9DZRiPBp23-3" edge="1"><mxGeometry relative="1" as="geometry"><mxPoint x="-103.86000000000001" y="110.00000000000009" as="sourcePoint"/><mxPoint x="45" y="110.45000000000007" as="targetPoint"/></mxGeometry></mxCell><mxCell id="NxAw48Pnlh9DZRiPBp23-18" value="skillUpdate" style="endArrow=open;html=1;rounded=0;exitX=0.057;exitY=0.32;exitDx=0;exitDy=0;exitPerimeter=0;entryX=1.04;entryY=0.136;entryDx=0;entryDy=0;entryPerimeter=0;endFill=0;" parent="NxAw48Pnlh9DZRiPBp23-3" edge="1"><mxGeometry width="50" height="50" relative="1" as="geometry"><mxPoint x="44.99999999999994" y="279.99999999999994" as="sourcePoint"/><mxPoint x="-105.17000000000002" y="280.11999999999995" as="targetPoint"/></mxGeometry></mxCell><mxCell id="NxAw48Pnlh9DZRiPBp23-21" value="skillUpdate" style="endArrow=open;html=1;rounded=0;exitX=0.057;exitY=0.32;exitDx=0;exitDy=0;exitPerimeter=0;entryX=1.04;entryY=0.136;entryDx=0;entryDy=0;entryPerimeter=0;endFill=0;" parent="NxAw48Pnlh9DZRiPBp23-3" edge="1"><mxGeometry width="50" height="50" relative="1" as="geometry"><mxPoint x="45" y="320" as="sourcePoint"/><mxPoint x="-105.17000000000007" y="320.1199999999999" as="targetPoint"/></mxGeometry></mxCell><mxCell id="NxAw48Pnlh9DZRiPBp23-19" value="" style="points=[];perimeter=orthogonalPerimeter;rounded=0;shadow=0;strokeWidth=1;" parent="1" vertex="1"><mxGeometry x="485" y="380" width="10" height="60" as="geometry"/></mxCell><mxCell id="NxAw48Pnlh9DZRiPBp23-20" value="&lt;div&gt;skillRegister&lt;/div&gt;" style="endArrow=open;html=1;rounded=0;exitX=0;exitY=0.044;exitDx=0;exitDy=0;exitPerimeter=0;endFill=0;" parent="1" edge="1"><mxGeometry width="50" height="50" relative="1" as="geometry"><mxPoint x="485" y="390" as="sourcePoint"/><mxPoint x="335" y="390" as="targetPoint"/></mxGeometry></mxCell></root></mxGraphModel></diagram></mxfile>